<?xml version="1.0" encoding="UTF-8"?>
<svg version="1.1" xmlns="http://www.w3.org/2000/svg" width="500" height="150">
<path d="M0 0 C1.69865456 -0.00043808 1.69865456 -0.00043808 3.43162537 -0.00088501 C7.15965545 0.00050383 10.88748352 0.01604432 14.61547852 0.03173828 C17.20622142 0.03546999 19.79696575 0.03831622 22.38771057 0.04031372 C28.50031141 0.04715926 34.61282939 0.06290827 40.72539908 0.0830127 C47.68793388 0.10541274 54.65047223 0.11637543 61.61303413 0.12640357 C75.9276896 0.14727577 90.24228462 0.18242604 104.55688477 0.22705078 C103.76237503 1.82559996 102.96676808 3.42360383 102.17070007 5.02137756 C101.72776454 5.91132447 101.28482901 6.80127138 100.82847118 7.71818638 C99.33997079 10.65502621 97.74160259 13.5079933 96.07641602 16.34814453 C95.46991211 17.38519531 94.8634082 18.42224609 94.23852539 19.49072266 C93.62170898 20.53808594 93.00489258 21.58544922 92.36938477 22.66455078 C91.7409668 23.73898438 91.11254883 24.81341797 90.46508789 25.92041016 C85.87831334 33.74490792 85.87831334 33.74490792 83.55688477 37.22705078 C80.79177924 37.48502433 78.25269559 37.55014848 75.48974609 37.48486328 C74.65523422 37.47738571 73.82072235 37.46990814 72.96092224 37.46220398 C71.14277 37.44516994 69.32466819 37.42189981 67.50666237 37.39321899 C64.61633983 37.35172669 61.72694795 37.33545088 58.83634949 37.32739258 C50.61569851 37.3035034 42.39602897 37.26329839 34.17626953 37.13476562 C29.14836128 37.05798867 24.1226291 37.03606011 19.09418297 37.04803467 C17.18893706 37.04244698 15.28363082 37.01710398 13.3789463 36.97052002 C0.00455238 36.65399544 -7.7365804 38.83285457 -17.76845741 47.80561829 C-20.62394852 50.22933004 -23.74896105 52.24398208 -26.88061523 54.28955078 C-28.77182801 55.54808347 -30.64082324 56.84417919 -32.44311523 58.22705078 C-32.44311523 58.88705078 -32.44311523 59.54705078 -32.44311523 60.22705078 C-29.84269203 62.2156097 -27.08977504 63.90232863 -24.31747437 65.64263916 C-21.6365496 67.37338441 -19.16062528 69.23124455 -16.69448853 71.25482178 C-3.99356792 81.29078645 6.94193799 81.9077548 22.72094727 81.61767578 C25.09419327 81.61773225 27.46744445 81.62309647 29.84066772 81.63348389 C36.02618558 81.64655142 42.20897382 81.58850621 48.39398193 81.5145874 C54.72947495 81.45180517 61.06488539 81.45773141 67.40063477 81.45751953 C79.78690517 81.44715778 92.17138242 81.36151422 104.55688477 81.22705078 C101.40619202 87.07257018 98.25528676 92.8884168 94.72485352 98.51611328 C94.07194336 99.55896484 93.4190332 100.60181641 92.74633789 101.67626953 C92.08569336 102.72427734 91.42504883 103.77228516 90.74438477 104.85205078 C90.0644043 105.93873047 89.38442383 107.02541016 88.68383789 108.14501953 C83.70242048 116.08151507 83.70242048 116.08151507 82.55688477 117.22705078 C79.7450699 117.34895048 76.95740567 117.40569714 74.14428711 117.41992188 C73.26115341 117.42809937 72.37801971 117.43627686 71.46812439 117.44470215 C68.52636394 117.46963704 65.58465249 117.48610469 62.64282227 117.50048828 C61.6364333 117.50581196 60.63004433 117.51113564 59.59315872 117.51662064 C54.25262462 117.54340428 48.91211417 117.56275078 43.5715332 117.57714844 C38.08544973 117.59368767 32.59997981 117.63835903 27.11412621 117.68951988 C22.87408876 117.72341289 18.63419186 117.73475065 14.39403152 117.74037552 C12.37447115 117.74704173 10.35491846 117.76214104 8.33549118 117.78626633 C-12.1971921 118.01729613 -29.18660492 113.56329036 -44.66967773 99.12548828 C-54.95965961 88.11022134 -58.6182849 75.87806586 -58.69311523 61.16455078 C-58.71374023 60.17777344 -58.73436523 59.19099609 -58.75561523 58.17431641 C-58.83455658 43.10638635 -53.13114551 28.1000812 -42.59545898 17.18017578 C-30.27646264 6.00141321 -16.51705888 -0.11209501 0 0 Z " fill="#69EBE0" transform="translate(62.443115234375,5.77294921875)"/>
<path d="M0 0 C-2.68902271 5.45977928 -5.40066103 10.86815703 -8.48046875 16.12109375 C-9.08697266 17.15814453 -9.69347656 18.19519531 -10.31835938 19.26367188 C-10.93517578 20.31103516 -11.55199219 21.35839844 -12.1875 22.4375 C-12.81591797 23.51193359 -13.44433594 24.58636719 -14.09179688 25.69335938 C-18.67857143 33.51785714 -18.67857143 33.51785714 -21 37 C-23.81117911 37.28621686 -26.40115429 37.37819403 -29.21337891 37.34057617 C-30.0622316 37.34101425 -30.91108429 37.34145233 -31.78565979 37.34190369 C-34.59952568 37.33980882 -37.41280033 37.31644515 -40.2265625 37.29296875 C-42.17426223 37.28737527 -44.12196618 37.283104 -46.06967163 37.28010559 C-51.20230715 37.26863727 -56.334689 37.23915304 -61.46722412 37.20599365 C-66.70207284 37.17533553 -71.93696244 37.16160937 -77.171875 37.14648438 C-87.44802827 37.11428521 -97.72399306 37.06306492 -108 37 C-105.08740493 34.01088122 -102.28029729 31.77961625 -98.73828125 29.5625 C-94.40912458 26.74903752 -90.48636612 23.78455062 -86.58879089 20.4032135 C-59.58989823 -2.83419763 -34.51702637 -3.1574904 0 0 Z " fill="#27CCC2" transform="translate(167,6)"/>
<path d="M0 0 C35.31 0 70.62 0 107 0 C100.24522565 12.38375297 100.24522565 12.38375297 97.16796875 17.2890625 C96.18860352 18.85333984 96.18860352 18.85333984 95.18945312 20.44921875 C94.52880859 21.49722656 93.86816406 22.54523438 93.1875 23.625 C92.50751953 24.71167969 91.82753906 25.79835938 91.12695312 26.91796875 C86.14553571 34.85446429 86.14553571 34.85446429 85 36 C76.49678964 36.76838314 67.90237829 36.80810175 59.37109375 36.63671875 C58.64936478 36.63492111 57.9276358 36.63312347 57.18403625 36.63127136 C49.37086919 36.38679413 44.37427007 33.14842966 38.91894531 27.70849609 C34.61581522 23.87728688 29.57345343 20.93957861 24.75 17.8125 C4.37414866 4.37414866 4.37414866 4.37414866 0 0 Z " fill="#27CCC2" transform="translate(60,87)"/>
<path d="M0 0 C1.24873901 0.00193359 1.24873901 0.00193359 2.52270508 0.00390625 C9.01591981 0.10485993 14.58999405 1.16988923 20.75 3.3125 C20.75 7.9325 20.75 12.5525 20.75 17.3125 C18.873125 16.8175 16.99625 16.3225 15.0625 15.8125 C5.94450338 13.73661624 -3.23158442 12.33912344 -11.6640625 17.14453125 C-16.09267922 20.40600021 -17.79079205 23.66094443 -18.734375 29.109375 C-19.427315 36.81323739 -18.99858862 42.94102845 -16.125 50.125 C-12.22365017 54.67657481 -6.5170187 56.84294788 -0.58984375 57.359375 C4.58663703 57.25567255 9.66773483 56.23310883 14.75 55.3125 C17.72 54.8175 17.72 54.8175 20.75 54.3125 C20.75 58.9325 20.75 63.5525 20.75 68.3125 C8.24795325 72.13965717 -6.52264053 73.12794032 -18.625 67.5 C-27.49162505 62.42550591 -31.513301 56.12929894 -34.90234375 46.44921875 C-36.95757367 33.81763709 -35.63985987 20.92837892 -28.1171875 10.35546875 C-20.68455409 2.22311043 -10.59333376 -0.06798088 0 0 Z " fill="#64E9DF" transform="translate(235.25,30.6875)"/>
<path d="M0 0 C0.78721436 0.00757324 1.57442871 0.01514648 2.38549805 0.02294922 C9.26537712 0.21726804 15.32653937 1.22270527 20.7265625 5.79296875 C26.32838072 11.90255412 28.125 19.38647776 28.125 27.4375 C27.41433198 36.24312098 25.75507092 41.96525825 19.25 48.1875 C11.29672235 53.9138599 1.20666399 54.07910825 -8.25 52.75 C-15.93840249 51.23637708 -20.3047624 47.78505222 -24.875 41.4375 C-28.75712065 33.0909406 -28.62189791 23.09170525 -25.875 14.4375 C-23.22131049 8.08325264 -19.53136491 4.59930107 -13.2578125 1.85546875 C-8.79688271 0.23137341 -4.71741086 -0.06370097 0 0 Z M-9.875 16.4375 C-11.97898697 19.74588941 -12.17281589 22.49350009 -12.1875 26.375 C-12.20425781 27.39464844 -12.22101563 28.41429687 -12.23828125 29.46484375 C-11.82209088 32.87044454 -10.90992834 34.69725692 -8.875 37.4375 C-4.20918115 40.5480459 0.66167015 40.04207901 6.125 39.4375 C9.1583408 37.77213642 10.64747399 36.90440996 11.72265625 33.6015625 C12.72349898 28.21838901 12.71953613 23.10220115 10.875 17.9375 C8.99186632 15.24730903 8.11168595 14.60989359 5.125 13.4375 C-0.38151695 12.74806617 -5.52046558 12.62728238 -9.875 16.4375 Z " fill="#4EDED4" transform="translate(321.875,48.5625)"/>
<path d="M0 0 C0.83789062 -0.01998047 1.67578125 -0.03996094 2.5390625 -0.06054688 C9.77670193 -0.05494499 16.04113923 1.70624391 21.4375 6.6875 C24.88401203 12.75336117 25.29237073 19.0648265 25.1953125 25.875 C25.1924826 26.64054199 25.18965271 27.40608398 25.18673706 28.19482422 C25.17565648 30.60921724 25.15057601 33.02322154 25.125 35.4375 C25.11495448 37.08723418 25.1058314 38.73697424 25.09765625 40.38671875 C25.07575712 44.40379268 25.04131325 48.42058073 25 52.4375 C20.38 52.4375 15.76 52.4375 11 52.4375 C10.67 51.4475 10.34 50.4575 10 49.4375 C9.0925 49.911875 8.185 50.38625 7.25 50.875 C-0.48645415 54.14150287 -8.97504928 54.27192822 -16.8671875 51.53125 C-20.86418251 49.48150897 -23.00216593 46.43316815 -25 42.4375 C-25.52113171 37.20909666 -25.64273534 32.79713246 -23.375 28 C-19.10200222 23.38966029 -14.92000712 20.62433921 -8.61816406 20.32397461 C-7.32990723 20.33182983 -7.32990723 20.33182983 -6.015625 20.33984375 C-5.08105469 20.34306641 -4.14648438 20.34628906 -3.18359375 20.34960938 C-1.73146484 20.36217773 -1.73146484 20.36217773 -0.25 20.375 C0.73355469 20.37951172 1.71710938 20.38402344 2.73046875 20.38867188 C5.15370791 20.40043517 7.57682273 20.41687316 10 20.4375 C9.19081589 17.46779972 9.19081589 17.46779972 8 14.4375 C-0.21655087 10.1335924 -10.34305307 12.95948467 -19 14.4375 C-19 10.8075 -19 7.1775 -19 3.4375 C-12.45197829 0.94898772 -6.98381654 -0.05909383 0 0 Z M-11 33.4375 C-11.58333333 36.4375 -11.58333333 36.4375 -11 39.4375 C-9.21979316 41.75950893 -7.81590042 42.32602973 -4.94140625 42.71875 C0.12498352 42.92379782 3.6308767 42.20816355 8 39.4375 C10.41121859 37.48116025 10.41121859 37.48116025 10.125 33.8125 C10.08375 32.69875 10.0425 31.585 10 30.4375 C7.06195004 30.35663624 4.12611925 30.2970717 1.1875 30.25 C0.35412109 30.22486328 -0.47925781 30.19972656 -1.33789062 30.17382812 C-2.14033203 30.16416016 -2.94277344 30.15449219 -3.76953125 30.14453125 C-4.50792236 30.1288208 -5.24631348 30.11311035 -6.00708008 30.09692383 C-8.58168056 30.53690517 -9.43979032 31.37541734 -11 33.4375 Z " fill="#34D3C9" transform="translate(429,48.5625)"/>
<path d="M0 0 C1.30130859 0.00193359 1.30130859 0.00193359 2.62890625 0.00390625 C7.75454131 0.07412043 10.77610108 0.67536703 15.875 2.375 C15.875 6.665 15.875 10.955 15.875 15.375 C14.84375 15.045 13.8125 14.715 12.75 14.375 C6.56177744 12.78884909 0.21308671 13.21476747 -6.125 13.375 C-6.125 14.695 -6.125 16.015 -6.125 17.375 C-5.44695312 17.54515625 -4.76890625 17.7153125 -4.0703125 17.890625 C15.46486001 22.97734582 15.46486001 22.97734582 19.875 30.375 C21.50307001 36.58201691 20.92423761 41.67033775 17.875 47.375 C12.28483023 52.82541553 4.56971705 53.40917518 -2.92578125 53.33984375 C-9.31724378 52.99213807 -15.03298915 52.28070596 -21.125 50.375 C-21.125 46.085 -21.125 41.795 -21.125 37.375 C-19.619375 37.705 -18.11375 38.035 -16.5625 38.375 C-9.39355083 39.70396969 -2.3900106 39.55147799 4.875 39.375 C4.41516671 37.39860269 4.41516671 37.39860269 2.875 35.375 C0.27341291 34.20836902 -2.17984092 33.25406622 -4.875 32.375 C-11.0225473 30.32581757 -16.58173886 28.25736262 -21 23.25 C-22.6934133 18.92238823 -22.76494209 14.95757384 -22.125 10.375 C-19.9276927 5.43105857 -17.14169807 3.4571254 -12.45214844 1.19970703 C-8.3364296 -0.25884293 -4.32000104 -0.1230585 0 0 Z " fill="#41D8CE" transform="translate(378.125,48.625)"/>
<path d="M0 0 C1.02867187 -0.01417969 2.05734375 -0.02835938 3.1171875 -0.04296875 C6.125 0.1875 6.125 0.1875 11.125 2.1875 C11.125 5.8175 11.125 9.4475 11.125 13.1875 C8.32552083 13.12239583 5.52604167 13.05729167 2.7265625 12.9921875 C-0.03762173 12.91533152 -0.03762173 12.91533152 -1.875 15.1875 C-2.33311675 17.15985333 -2.33311675 17.15985333 -2.5 19.3125 C-2.62375 20.59125 -2.7475 21.87 -2.875 23.1875 C1.415 23.1875 5.705 23.1875 10.125 23.1875 C9.795 27.1475 9.465 31.1075 9.125 35.1875 C5.165 35.1875 1.205 35.1875 -2.875 35.1875 C-2.875 48.0575 -2.875 60.9275 -2.875 74.1875 C-7.825 74.1875 -12.775 74.1875 -17.875 74.1875 C-17.875 61.3175 -17.875 48.4475 -17.875 35.1875 C-20.185 35.1875 -22.495 35.1875 -24.875 35.1875 C-24.875 31.2275 -24.875 27.2675 -24.875 23.1875 C-22.565 23.1875 -20.255 23.1875 -17.875 23.1875 C-17.90980469 22.46304688 -17.94460938 21.73859375 -17.98046875 20.9921875 C-18.26222094 10.92960931 -18.26222094 10.92960931 -14.875 6.1875 C-10.2366188 1.53644563 -6.52666722 0.04068995 0 0 Z " fill="#2ACEC4" transform="translate(484.875,26.8125)"/>
<path d="M0 0 C4.95 0 9.9 0 15 0 C15.02505615 1.74651855 15.0501123 3.49303711 15.07592773 5.29248047 C15.1597459 11.05610389 15.24801518 16.81964984 15.33933926 22.58315849 C15.39455772 26.07835597 15.44797596 29.57356184 15.49731445 33.06884766 C15.55408436 37.08505496 15.61862219 41.10110445 15.68359375 45.1171875 C15.70030624 46.37554413 15.71701874 47.63390076 15.73423767 48.9303894 C15.75418289 50.09144196 15.77412811 51.25249451 15.79467773 52.44873047 C15.81022202 53.47465302 15.8257663 54.50057556 15.84178162 55.55758667 C15.8416631 58.00704188 15.8416631 58.00704188 17 60 C19.31 60 21.62 60 24 60 C24 63.63 24 67.26 24 71 C18.13876811 73.16610744 13.12160562 73.41108197 7 72 C3.51835427 70.11410856 2.35616725 68.8871362 0.88720703 65.22827148 C-0.68240553 59.28995195 -0.2437454 53.06360075 -0.1953125 46.97265625 C-0.19157681 45.61502797 -0.18873247 44.25739697 -0.18673706 42.89976501 C-0.17914431 39.34712118 -0.15953397 35.79464397 -0.1373291 32.24206543 C-0.11677613 28.6086655 -0.10771524 24.97523833 -0.09765625 21.34179688 C-0.07628337 14.22779038 -0.04113741 7.11392368 0 0 Z " fill="#59E4DA" transform="translate(265,29)"/>
</svg>
