<?xml version="1.0" encoding="UTF-8"?>
<svg version="1.1" xmlns="http://www.w3.org/2000/svg" width="1000" height="1000">
<path d="M0 0 C4.64933221 0.02180475 9.29863485 0.01427059 13.94800389 0.01048863 C21.98266759 0.00788015 30.01712663 0.02342764 38.05173886 0.05167782 C49.66808038 0.09249476 61.284324 0.10535357 72.90072946 0.11161778 C91.75230302 0.12253256 110.60376777 0.15572998 129.45528233 0.20313084 C147.7563836 0.24909958 166.05745521 0.28445561 184.35860264 0.3056699 C186.0537025 0.30764033 186.0537025 0.30764033 187.7830468 0.30965056 C193.45285164 0.31617625 199.12265669 0.32249467 204.79246187 0.32871008 C251.75118894 0.38045531 298.70979737 0.46844345 345.6684171 0.58032811 C344.95601332 4.52754339 343.88506664 7.33143655 341.85201085 10.80689061 C341.26089512 11.82468602 340.6697794 12.84248143 340.06075108 13.89111912 C339.09310826 15.53165257 339.09310826 15.53165257 338.1059171 17.20532811 C337.42965834 18.36377482 336.753969 19.52255409 336.07881749 20.68164647 C330.64024258 30.00016717 325.10765345 39.26341657 319.58662999 48.53320897 C314.52269539 57.06463045 309.64374803 65.68793734 304.82539952 74.35986912 C293.46116409 94.78177787 293.46116409 94.78177787 287.560238 104.18699276 C286.09778285 106.81018016 285.10240693 109.0392159 284.10787976 111.8263551 C282.1202885 116.81426018 279.9299215 121.17782401 275.6684171 124.58032811 C267.63135535 127.56053088 258.4780549 126.66678833 250.05575264 126.39219415 C246.51271151 126.2956538 242.96955558 126.29865796 239.42540562 126.28967869 C233.28968489 126.26113584 227.15732175 126.17168876 221.02295125 126.04152119 C212.13682174 125.85404392 203.25206056 125.77207947 194.3642344 125.71732624 C179.92088074 125.62654027 165.47916552 125.46792445 151.03706944 125.25855076 C150.17366191 125.24605182 149.31025438 125.23355288 148.42068298 125.22067519 C144.92301159 125.16995756 141.42534163 125.11914244 137.92767378 125.06818166 C128.31259049 124.92882753 118.69734424 124.80351884 109.08199131 124.68433201 C108.22146229 124.67364628 107.36093327 124.66296054 106.47432761 124.651951 C92.09141942 124.47496626 77.70835227 124.34258378 63.32475257 124.23675036 C54.46781701 124.16905271 45.61331635 124.05881627 36.75767691 123.89225633 C30.68120862 123.7801276 24.60507279 123.70697775 18.52772813 123.66353731 C15.02877693 123.63700166 11.53256861 123.59251195 8.03474247 123.49785817 C-8.84414554 123.08267227 -19.62759226 124.01436151 -32.3315829 135.58032811 C-33.87411619 136.6989757 -35.43009279 137.80017929 -37.01517665 138.85767186 C-38.26720418 139.743366 -39.51852558 140.63005932 -40.7690829 141.51782811 C-42.19876125 142.52955979 -43.62844902 143.54127816 -45.0581454 144.55298436 C-45.76616298 145.0545908 -46.47418056 145.55619725 -47.20365322 146.07300389 C-50.68172831 148.53670692 -54.16253141 150.99654089 -57.6440829 153.45532811 C-58.33751796 153.94509129 -59.03095302 154.43485447 -59.74540126 154.93945897 C-66.1120308 159.43239518 -72.49712571 163.89877661 -78.88285244 168.36450779 C-84.26981878 172.1332016 -89.64880724 175.91289118 -95.0190829 179.70532811 C-95.69857997 180.18461766 -96.37807704 180.66390721 -97.07816494 181.15772069 C-100.74720707 183.74750452 -104.40839858 186.34777818 -108.06205165 188.95923436 C-109.22764614 189.78947117 -109.22764614 189.78947117 -110.41678798 190.63648045 C-111.90972424 191.70011198 -113.40055569 192.76670596 -114.88895595 193.83667576 C-115.55838222 194.31282322 -116.22780849 194.78897069 -116.9175204 195.27954686 C-117.5058163 195.70066746 -118.0941122 196.12178807 -118.70023525 196.5556699 C-120.3315829 197.58032811 -120.3315829 197.58032811 -123.3315829 198.58032811 C-120.78517061 201.24165907 -118.28332024 203.43711461 -115.20267665 205.45142186 C-114.35519863 206.01039158 -113.5077206 206.56936131 -112.63456142 207.14526951 C-111.68895351 207.76321385 -110.7433456 208.38115819 -109.7690829 209.01782811 C-107.59887964 210.4500357 -105.42953476 211.88347404 -103.2612704 213.31860936 C-102.65894084 213.71678868 -102.05661129 214.114968 -101.43602931 214.52521336 C-93.31331975 219.90307666 -85.25004234 225.36941146 -77.1786288 230.82379735 C-58.95112423 243.14020792 -40.68016549 255.3893051 -22.35965908 267.56690037 C-19.3315829 269.58032811 -19.3315829 269.58032811 -17.03923786 271.67610371 C-11.78748114 275.12906904 -5.0160399 274.11381745 1.01897252 274.06134617 C2.50495716 274.06309097 3.99094061 274.06659421 5.47691751 274.07170284 C9.55668431 274.0806447 13.63603087 274.06465025 17.71574414 274.04459059 C22.11649759 274.02731852 26.5172273 274.03316212 30.91800511 274.03619969 C38.54143844 274.03829721 46.16473485 274.02574603 53.78813374 274.00324833 C64.81026884 273.97074167 75.83233773 273.96032268 86.85451557 273.95529637 C104.73718174 273.94654163 122.61977493 273.91992117 140.50240147 273.88208592 C157.87381703 273.84537048 175.24521276 273.81705642 192.61665928 273.80005467 C193.68741436 273.79900378 194.75816943 273.79795288 195.86137162 273.79687014 C201.23302927 273.79165 206.60468706 273.78659516 211.97634494 273.78162253 C256.54041955 273.74015492 301.10441455 273.66970158 345.6684171 273.58032811 C345.01835259 277.12329364 344.26857001 279.63319024 342.3246671 282.67798436 C341.82934483 283.46439305 341.33402256 284.25080174 340.82369053 285.061041 C340.2774503 285.91303074 339.73121006 286.76502049 339.1684171 287.64282811 C337.97439197 289.53783238 336.78175439 291.43371143 335.5902921 293.33032811 C334.95285069 294.34224217 334.31540928 295.35415623 333.65865147 296.39673436 C330.19005741 301.94512328 326.80673885 307.54524178 323.4184171 313.14282811 C322.69659787 314.33356535 321.97467324 315.5242387 321.25264561 316.71484959 C319.4219192 319.7340692 317.59214583 322.75386495 315.76271641 325.77387059 C312.54524262 331.08524165 309.32678834 336.39601649 306.1059171 341.70532811 C305.75703434 342.28043126 305.40815159 342.85553441 305.04869664 343.44806492 C287.74036561 371.96963063 287.74036561 371.96963063 283.54681885 378.35741532 C281.5631478 381.49964095 281.5631478 381.49964095 280.57177651 384.95211327 C278.93693563 389.1274966 277.48347196 392.08945222 273.6684171 394.58032811 C265.1470214 397.05089902 255.82936762 396.31427254 247.03780937 396.17713547 C243.31067919 396.13321136 239.58406772 396.16453697 235.85684788 396.18633091 C228.5569279 396.21714271 221.25893903 396.17868933 213.95928019 396.11679145 C205.4402113 396.04715317 196.92154461 396.04626619 188.40224189 396.04803876 C173.17993092 396.0488536 157.95850915 395.98727412 142.73653233 395.89063084 C128.0095019 395.79718454 113.28320014 395.74735292 98.55586827 395.74707615 C97.65097969 395.74705317 96.74609111 395.74703018 95.81378167 395.7470065 C94.91037361 395.74698895 94.00696554 395.74697139 93.07618147 395.74695331 C76.26673989 395.74634983 59.45759648 395.70616774 42.64826579 395.64673003 C36.73084938 395.62661032 30.81347626 395.61760675 24.89603055 395.61205685 C17.65796557 395.60441015 10.42038611 395.57341183 3.1825475 395.51500794 C-0.50042018 395.48567149 -4.18280131 395.46492412 -7.86589611 395.47051823 C-25.17605045 395.48861112 -40.83376341 394.07213208 -57.3315829 388.58032811 C-58.18717709 388.29675745 -59.04277128 388.01318679 -59.92429256 387.72102308 C-78.16265494 381.59585396 -95.92240843 373.63893895 -112.3315829 363.58032811 C-113.22103603 363.05439061 -114.11048915 362.52845311 -115.0268954 361.98657811 C-128.98734793 353.48528761 -141.65701427 342.97702145 -153.3315829 331.58032811 C-154.17148769 330.77546971 -154.17148769 330.77546971 -155.02836025 329.95435154 C-159.32181657 325.77328936 -163.08825924 321.35378956 -166.7065829 316.58032811 C-167.26821132 315.8397617 -167.82983974 315.09919529 -168.4084872 314.33618748 C-199.25906617 273.0315964 -207.37935419 222.28659977 -200.3706454 171.89673436 C-192.2708914 119.92465473 -166.7748696 72.64712908 -123.9565829 41.26782811 C-105.17685901 27.80041444 -85.01926143 16.51581932 -63.2065829 8.76782811 C-62.13633876 8.38727269 -62.13633876 8.38727269 -61.04447353 7.99902928 C-59.5088742 7.47990352 -57.96270984 6.99138892 -56.40939987 6.52793992 C-54.23445374 5.85830795 -52.07908069 5.12346771 -49.94116676 4.34364617 C-33.78779017 -1.09805694 -16.81695879 -0.0991035 0 0 Z " fill="#69EBE0" transform="translate(428.331582903862,187.4196718931198)"/>
<path d="M0 0 C9.01727434 -0.0731023 18.0338667 -0.07111726 27.05135536 -0.05462748 C31.16983163 -0.04822291 35.2883093 -0.04777703 39.40678978 -0.04660207 C47.14766157 -0.04353773 54.88851863 -0.03539304 62.62938404 -0.02525258 C71.4667153 -0.01393593 80.30404739 -0.0085425 89.14138412 -0.00355715 C107.26672615 0.00679585 125.39205462 0.02429652 143.51738548 0.04676646 C142.80498171 3.99398174 141.73403503 6.7978749 139.70097923 10.27332896 C139.10986351 11.29112437 138.51874779 12.30891978 137.90971947 13.35755748 C136.94207664 14.99809092 136.94207664 14.99809092 135.95488548 16.67176646 C135.27862673 17.83021317 134.60293738 18.98899245 133.92778587 20.14808482 C128.48921097 29.46660552 122.95662184 38.72985493 117.43559837 47.99964732 C112.37166378 56.5310688 107.49271642 65.15437569 102.6743679 73.82630748 C97.09357071 83.8551855 91.45956786 93.87970036 85.43958092 103.65319651 C83.99011593 106.21217711 82.82364245 108.60655007 81.6834774 111.29490489 C76.56930425 122.5718983 76.56930425 122.5718983 71.54277992 125.00101298 C65.65923 126.49944556 59.61628072 126.01266896 53.60722923 125.74207896 C51.52686751 125.71292693 49.44638333 125.69165536 47.36586571 125.67747325 C42.8114151 125.63005476 38.26238864 125.52862257 33.70992088 125.38636607 C26.34255691 125.15690281 18.97616047 125.04325547 11.60600853 124.94715708 C3.40012694 124.83373735 -4.80505814 124.70968988 -13.01006508 124.5447523 C-38.16965175 124.04299166 -63.32632984 123.8661237 -88.49042702 123.75770396 C-90.5204227 123.74874174 -92.5504183 123.73976069 -94.58041382 123.73076075 C-102.70039077 123.69498735 -110.82037066 123.66001358 -118.94035816 123.62671679 C-139.65980359 123.54098224 -160.3789565 123.41467351 -181.09815168 123.28271741 C-185.54357494 123.25448763 -189.98900123 123.2267464 -194.43442726 123.19895762 C-202.45049316 123.14876894 -210.46655529 123.09800982 -218.48261452 123.04676646 C-215.18169676 119.64548738 -211.68328475 117.01223345 -207.72870827 114.42567271 C-207.05206627 113.97737605 -206.37542427 113.52907939 -205.67827797 113.06719798 C-204.20402512 112.09100254 -202.72840828 111.11686459 -201.25159645 110.14454478 C-197.20884998 107.48240062 -193.1764707 104.80462086 -189.14277077 102.12879771 C-187.86043556 101.27896815 -187.86043556 101.27896815 -186.5521946 100.41197032 C-175.37887128 93.00036864 -164.27529911 85.4852631 -153.16617775 77.97794932 C-144.31408201 71.99627708 -135.45930892 66.01970943 -126.56464577 60.10145396 C-116.27608579 53.25572373 -106.03610774 46.33836881 -95.79511452 39.42176646 C-93.01221954 37.54238359 -90.2292114 35.66316951 -87.44582558 33.78451365 C-85.64314968 32.56771929 -83.84080662 31.35043167 -82.03881264 30.13262767 C-78.08680028 27.46452623 -74.12974037 24.80610769 -70.14399147 22.18861216 C-64.77628559 18.66011877 -59.49254688 15.16289771 -54.54902077 11.04286021 C-44.69936166 3.02585616 -36.72097681 0.08449611 -24.00605202 0.15052623 C-22.60399795 0.13530888 -21.2019708 0.11741124 -19.79998207 0.09704512 C-16.10373 0.05145236 -12.40845089 0.04467497 -8.71195793 0.04795521 C-5.80781444 0.04640664 -2.90403433 0.02366806 0 0 Z " fill="#26CCC2" transform="translate(630.4826145172119,187.95323354005814)"/>
<path d="M0 0 C117.15 0 234.3 0 355 0 C350.97495445 7.37925017 346.89608717 14.60258597 342.5 21.75 C341.26034745 23.77599932 340.02076613 25.80204222 338.78125 27.828125 C338.15347656 28.85228516 337.52570313 29.87644531 336.87890625 30.93164062 C333.90906725 35.78155442 330.95506999 40.64107892 328 45.5 C326.83079104 47.42061059 325.66152011 49.34118345 324.4921875 51.26171875 C322.18316 55.0549371 319.87600276 58.84928353 317.5703125 62.64453125 C297.35700806 95.90497003 297.35700806 95.90497003 292.94067383 102.69229126 C290.91073884 105.91717295 290.91073884 105.91717295 289.78414917 109.39955139 C288.11153025 113.42907197 286.65186802 116.48998267 283 119 C274.82533258 121.48122514 265.70920967 120.50475977 257.28125 120.26953125 C254.73682353 120.24527094 252.19233615 120.22677239 249.64782715 120.21379089 C243.64689459 120.16931296 237.6496781 120.06700326 231.65023184 119.93624753 C224.81627614 119.79056162 217.98216604 119.71937288 211.14704227 119.65420687 C197.096313 119.51858992 183.04832692 119.29017514 169 119 C169 118.34 169 117.68 169 117 C168.29488281 116.75507812 167.58976563 116.51015625 166.86328125 116.2578125 C163.58767269 114.81886849 161.06248309 113.00863525 158.1875 110.875 C150.55720448 105.29165053 142.6876386 100.08464027 134.79174805 94.88623047 C129.00598591 91.06150905 123.36041072 87.10072207 117.77075195 82.99560547 C113.00482579 79.56299639 108.0921577 76.35466485 103.1875 73.125 C96.72060724 68.84260236 90.27780349 64.55584755 84 60 C77.78214854 55.48900972 71.40324051 51.242899 65 47 C57.52328938 42.04426014 50.14043 37.0196247 42.87890625 31.75390625 C38.04106741 28.28342788 33.09723272 24.96692238 28.16741943 21.62915039 C12.19161879 10.81058778 12.19161879 10.81058778 5.4375 6.0625 C4.36371094 5.31097656 3.28992188 4.55945313 2.18359375 3.78515625 C1.46300781 3.19605469 0.74242187 2.60695313 0 2 C0 1.34 0 0.68 0 0 Z " fill="#26CCC2" transform="translate(419,463)"/>
<path d="M0 0 C0 5.94 0 11.88 0 18 C-2.413125 17.34 -4.82625 16.68 -7.3125 16 C-18.90468303 13.12872998 -33.06757385 11.26849625 -44.125 16.81640625 C-51.10340215 21.22152261 -53.71154933 27.65971105 -55.59375 35.4609375 C-57.18868306 45.42926914 -56.27365507 56.11386596 -50.9375 64.875 C-46.9934921 69.87715636 -40.18238726 72.86752532 -34 74 C-25.39817078 74.5900991 -17.52128181 73.77675857 -9.15625 71.75390625 C-6.13370605 71.03193721 -3.06529133 70.51088189 0 70 C0 75.94 0 81.88 0 88 C-15.89522513 94.35809005 -35.9375353 95.09871706 -52 89 C-63.42605237 83.66189116 -70.32846832 76.08283631 -75.1875 64.44140625 C-80.0706626 49.7684417 -79.30562973 31.75458434 -72.875 17.625 C-66.31716606 6.01665515 -57.793268 -0.2809368 -45.125 -3.8125 C-30.74443426 -6.78369127 -13.31495408 -6.65747704 0 0 Z " fill="#64E9DF" transform="translate(366,661)"/>
<path d="M0 0 C7.6339741 4.96916358 12.2359379 11.91387024 14.3125 20.75 C16.34079081 33.32930359 15.56437081 46.36899238 8 57 C0.92437914 64.89719769 -7.41678931 67.85056266 -17.8125 68.875 C-30.37786128 69.42550871 -41.89203825 67.84432411 -51.8125 59.6875 C-60.9495436 48.46198929 -62.18582657 37.07731919 -61 23 C-59.46461612 13.80830589 -55.19799939 6.92183776 -48 1 C-44.75801043 -0.7895023 -41.56490901 -2.02103535 -38 -3 C-37.39196533 -3.17289551 -36.78393066 -3.34579102 -36.1574707 -3.52392578 C-25.08889068 -5.96635319 -9.97933907 -5.46680163 0 0 Z M-35.875 17.25 C-40.85296848 23.69207686 -40.77216075 31.18306398 -40 39 C-38.74349145 43.37400815 -37.1009728 46.14674608 -33.5 48.9375 C-27.32548186 51.56167021 -21.17564023 51.91298291 -14.75 49.875 C-10.72011717 48.20445918 -8.99228356 45.90487577 -7 42 C-4.82197309 35.0883946 -5.21807321 26.62363522 -8 20 C-11.37185579 15.40201483 -14.53101206 14.26300288 -19.9140625 13.26171875 C-25.90937235 12.50949823 -31.14977489 13.55199774 -35.875 17.25 Z " fill="#4EDED4" transform="translate(480,685)"/>
<path d="M0 0 C0.99064453 -0.020625 1.98128906 -0.04125 3.00195312 -0.0625 C12.14913893 -0.11048524 20.55054217 1.33910409 27.8125 7.25 C35.19679618 14.80212109 35.10361273 22.07198983 35.0078125 32.08984375 C35.0049826 33.21193741 35.00215271 34.33403107 34.99923706 35.49012756 C34.98808775 39.05602918 34.96299251 42.62167494 34.9375 46.1875 C34.92746343 48.61262657 34.91833876 51.03775709 34.91015625 53.46289062 C34.88816554 59.3920249 34.85367163 65.32096914 34.8125 71.25 C28.8725 71.25 22.9325 71.25 16.8125 71.25 C16.1525 69.93 15.4925 68.61 14.8125 67.25 C13.78125 67.86875 12.75 68.4875 11.6875 69.125 C1.82491419 73.99541274 -9.73052881 74.21770802 -20.1875 71.25 C-25.17276767 69.0555281 -29.52332416 66.06601018 -32.1875 61.25 C-34.17565433 54.17755518 -35.18405558 47.14472966 -32.1875 40.25 C-28.4733025 34.13249823 -23.21650631 30.84567293 -16.48779297 28.71069336 C-13.44425075 28.10114505 -10.55687155 28.13873083 -7.453125 28.15234375 C-6.15761719 28.15556641 -4.86210938 28.15878906 -3.52734375 28.16210938 C-2.16406183 28.17046402 -0.80078058 28.17892896 0.5625 28.1875 C1.94140465 28.19251832 3.32031104 28.19708065 4.69921875 28.20117188 C8.07035659 28.21295907 11.44140628 28.22941365 14.8125 28.25 C13.89134363 22.82407307 13.89134363 22.82407307 11.0859375 18.30078125 C1.97615586 14.09024644 -9.7167642 16.53870368 -19.1875 18.25 C-21.1675 18.58 -23.1475 18.91 -25.1875 19.25 C-25.1875 14.3 -25.1875 9.35 -25.1875 4.25 C-16.4820679 1.26156809 -9.20424044 0.04699038 0 0 Z M-13.1875 44.25 C-15.51329101 47.73868651 -15.60615457 49.14718519 -15.1875 53.25 C-13.70898668 55.77990057 -12.75204614 57.01562164 -10.0234375 58.1484375 C-1.60885366 59.77792834 5.95350626 58.96486718 13.21923828 54.07006836 C15.43628413 51.53741791 15.16131112 49.86880559 15.02734375 46.55859375 C14.99632568 45.56529053 14.96530762 44.5719873 14.93334961 43.54858398 C14.89346924 42.79005127 14.85358887 42.03151855 14.8125 41.25 C11.08348186 41.16263264 7.35472835 41.10948518 3.625 41.0625 C2.56990234 41.03736328 1.51480469 41.01222656 0.42773438 40.98632812 C-0.59384766 40.97666016 -1.61542969 40.96699219 -2.66796875 40.95703125 C-3.60535889 40.9413208 -4.54274902 40.92561035 -5.50854492 40.90942383 C-8.74537288 41.32092251 -10.5671095 42.3316351 -13.1875 44.25 Z " fill="#35D3C9" transform="translate(604.1875,680.75)"/>
<path d="M0 0 C0.98548828 -0.00773438 1.97097656 -0.01546875 2.98632812 -0.0234375 C18.32973422 0.01723422 18.32973422 0.01723422 21.5625 3.25 C21.63575168 6.11267567 21.65488205 8.950719 21.625 11.8125 C21.62048828 12.61880859 21.61597656 13.42511719 21.61132812 14.25585938 C21.59950518 16.25393756 21.58156914 18.25197783 21.5625 20.25 C20.41652344 20.0334375 19.27054688 19.816875 18.08984375 19.59375 C16.55995553 19.31217548 15.03000419 19.0309437 13.5 18.75 C12.74783203 18.60691406 11.99566406 18.46382812 11.22070312 18.31640625 C5.32832465 17.24506471 -0.5540443 16.34927977 -6.375 18.25 C-7.385625 18.58 -8.39625 18.91 -9.4375 19.25 C-9.3097334 21.21040643 -9.3097334 21.21040643 -8.4375 23.25 C-6.30882532 24.44973471 -6.30882532 24.44973471 -3.625 25.1796875 C-2.63113281 25.50066406 -1.63726563 25.82164062 -0.61328125 26.15234375 C0.95873047 26.63380859 0.95873047 26.63380859 2.5625 27.125 C20.64717513 32.69480489 20.64717513 32.69480489 25.5625 40.375 C26.0575 41.798125 26.0575 41.798125 26.5625 43.25 C26.9028125 44.2090625 26.9028125 44.2090625 27.25 45.1875 C28.22915734 51.64993842 27.54023957 57.43228106 24.5625 63.25 C19.56055762 69.49903912 12.96312016 71.62059068 5.28515625 72.71875 C-6.76068805 73.85005661 -18.93970819 73.08259727 -30.4375 69.25 C-30.4375 63.31 -30.4375 57.37 -30.4375 51.25 C-28.808125 51.724375 -27.17875 52.19875 -25.5 52.6875 C-20.19265553 54.01748775 -15.06682981 54.67652834 -9.625 55 C-8.92060791 55.04439209 -8.21621582 55.08878418 -7.49047852 55.13452148 C-2.97015188 55.35231081 1.12941363 55.01492471 5.5625 54.25 C5.7200643 51.83809271 5.7200643 51.83809271 4.5625 49.25 C1.9669454 47.64958216 -0.86870642 46.77678757 -3.75 45.8125 C-5.39604401 45.21640041 -7.04057874 44.61611704 -8.68359375 44.01171875 C-9.49296387 43.71700684 -10.30233398 43.42229492 -11.13623047 43.11865234 C-14.28154009 41.93140307 -17.28311744 40.58526 -20.3125 39.125 C-21.21742188 38.68929687 -22.12234375 38.25359375 -23.0546875 37.8046875 C-27.43134019 34.94910099 -29.91618217 31.20580808 -31.4375 26.25 C-32.22576379 20.11804096 -31.98115236 14.386628 -28.828125 8.96875 C-21.73076716 0.19673469 -10.37904754 -0.08113913 0 0 Z " fill="#41D8CE" transform="translate(535.4375,680.75)"/>
<path d="M0 0 C0 4.95 0 9.9 0 15 C-2.2584375 14.690625 -2.2584375 14.690625 -4.5625 14.375 C-9.34920373 13.9200934 -12.63343422 13.90768723 -17 16 C-19.16917838 20.23975774 -19.31306411 24.19144874 -20 29 C-14.06 29 -8.12 29 -2 29 C-2.33 34.28 -2.66 39.56 -3 45 C-8.61 45 -14.22 45 -20 45 C-20 62.82 -20 80.64 -20 99 C-26.6 99 -33.2 99 -40 99 C-40 81.18 -40 63.36 -40 45 C-43.3 45 -46.6 45 -50 45 C-50 39.72 -50 34.44 -50 29 C-46.7 29 -43.4 29 -40 29 C-40.05220703 27.60587891 -40.05220703 27.60587891 -40.10546875 26.18359375 C-40.32327133 16.23727605 -39.62940926 9.96503531 -32.6953125 2.51171875 C-24.44837311 -4.84211891 -9.68090342 -3.22696781 0 0 Z " fill="#2ACEC4" transform="translate(698,653)"/>
<path d="M0 0 C6.93 0 13.86 0 21 0 C21.01981934 2.4735498 21.03963867 4.94709961 21.06005859 7.49560547 C21.12686566 15.65409422 21.2045063 23.81245369 21.28752708 31.97079277 C21.33754421 36.91881361 21.3838736 41.86681254 21.421875 46.81494141 C21.4586596 51.58717966 21.50500057 56.3592369 21.55806351 61.13132095 C21.57664387 62.95500651 21.59173826 64.77873093 21.60334396 66.60247421 C21.6201444 69.15037456 21.64916358 71.69785702 21.68115234 74.24560547 C21.68331253 75.00517548 21.68547272 75.76474548 21.68769836 76.54733276 C21.62027029 80.73060566 21.62027029 80.73060566 24 84 C26.44012949 84.24287489 26.44012949 84.24287489 29.125 84.125 C30.73375 84.08375 32.3425 84.0425 34 84 C34 88.62 34 93.24 34 98 C26.93507695 101.53246153 18.60350739 101.85648385 10.97265625 99.79296875 C6.78049714 98.1078038 3.89962169 95.62788687 1.6875 91.625 C0.1312338 85.6828927 -0.14315518 79.78968216 -0.11352539 73.67797852 C-0.11367142 72.87716354 -0.11381744 72.07634857 -0.1139679 71.25126648 C-0.11327605 68.62711801 -0.105518 66.00304219 -0.09765625 63.37890625 C-0.09578948 61.55045104 -0.0943668 59.72199532 -0.09336853 57.89353943 C-0.08956374 53.09809979 -0.07975097 48.30269078 -0.06866455 43.50726318 C-0.05840649 38.60705988 -0.05386152 33.70685159 -0.04882812 28.80664062 C-0.03812677 19.20441151 -0.02054659 9.6022131 0 0 Z " fill="#59E4DA" transform="translate(378,653)"/>
</svg>
