<?xml version="1.0" encoding="UTF-8"?>
<svg version="1.1" xmlns="http://www.w3.org/2000/svg" width="500" height="400">
<path d="M0 0 C1.42842668 -0.00131065 2.85685265 -0.00394184 4.2852748 -0.0077675 C8.18265733 -0.01443343 12.07978963 -0.00253397 15.97714031 0.01256669 C20.19034645 0.02557942 24.40353965 0.0211339 28.61676025 0.01885986 C35.90722659 0.01729043 43.19761208 0.02666507 50.48805809 0.04357338 C61.02867359 0.06800364 71.56925018 0.07577276 82.10989092 0.07953735 C99.21332282 0.08609553 116.31671169 0.10603947 133.42012024 0.13444519 C150.02981858 0.16200218 166.6395052 0.18322773 183.2492218 0.19596863 C184.78617658 0.19715088 184.78617658 0.19715088 186.35418095 0.19835702 C191.49472441 0.20227227 196.63526796 0.20606336 201.77581155 0.20979273 C244.38978084 0.24086889 287.0037032 0.2936874 329.61763 0.36076355 C328.3880709 4.15534503 327.13336559 7.49743199 325.070755 10.91545105 C324.56310608 11.76445984 324.05545715 12.61346863 323.53242493 13.48820496 C322.70835144 14.84824646 322.70835144 14.84824646 321.86763 16.23576355 C320.68078351 18.2197507 319.49460802 20.20413939 318.30903625 22.18888855 C317.6968927 23.21047058 317.08474915 24.23205261 316.45405579 25.28459167 C313.53956488 30.1666158 310.66905803 35.07395102 307.80513 39.98576355 C307.22843567 40.97463562 306.65174133 41.96350769 306.05757141 42.98234558 C299.19130737 54.78026373 292.43541919 66.64133943 285.67720032 78.50132751 C282.72340843 83.68492601 279.7685613 88.86791971 276.81141663 94.04960632 C275.76301946 95.88751942 274.71592791 97.72617199 273.66889954 99.56486511 C273.03580872 100.67442566 272.4027179 101.78398621 271.7504425 102.9271698 C271.19243958 103.90629333 270.63443665 104.88541687 270.05952454 105.89421082 C268.97281814 107.75316691 267.81205919 109.56911977 266.61763 111.36076355 C264.70769203 111.72070169 264.70769203 111.72070169 262.32447624 111.6991806 C261.41771169 111.69837006 260.51094713 111.69755952 259.57670486 111.69672441 C258.574016 111.68048257 257.57132715 111.66424073 256.53825378 111.64750671 C255.47794327 111.64230876 254.41763275 111.63711082 253.32519162 111.63175535 C249.74778181 111.6108261 246.17092667 111.56857195 242.59370422 111.52677917 C240.03813173 111.50793702 237.48254803 111.49056632 234.92695618 111.4745636 C229.40917183 111.43787501 223.89154988 111.39281117 218.37388229 111.34173584 C209.64054066 111.26197079 200.90716827 111.21562237 192.17356873 111.1750946 C189.18436186 111.16084242 186.1951558 111.14642572 183.20594978 111.13199615 C182.45877007 111.12840486 181.71159037 111.12481357 180.94176885 111.12111345 C172.43021159 111.07987731 163.91868957 111.03305552 155.40718079 110.98283386 C154.62896769 110.97825194 153.85075459 110.97367002 153.04895927 110.96894926 C140.46933574 110.89387954 127.89010906 110.78852365 115.31078683 110.67448932 C102.38339165 110.5583044 89.45620379 110.48480615 76.52833951 110.44780111 C68.56296029 110.42347326 60.59933445 110.36502994 52.63458098 110.26174289 C46.51216218 110.18569575 40.39080526 110.16813374 34.26794434 110.1714592 C31.76861339 110.16368412 29.26925439 110.13718197 26.77035904 110.08987808 C11.74420773 109.81780794 1.57632101 110.88747336 -9.91960692 121.08368015 C-11.85544319 122.77378596 -13.93393682 124.20767162 -16.06596375 125.6381073 C-17.31800053 126.52378835 -18.56932276 127.41048055 -19.81987 128.29826355 C-21.24563131 129.3074063 -22.67141317 130.31652002 -24.09721375 131.3256073 C-24.80474792 131.82689148 -25.5122821 132.32817566 -26.24125671 132.84465027 C-29.78534289 135.35420274 -33.33405372 137.85719756 -36.88237 140.36076355 C-41.09817277 143.33597098 -45.31355782 146.31176151 -49.52690125 149.29045105 C-50.91617807 150.27228711 -52.30550115 151.25405772 -53.69487 152.23576355 C-54.38185974 152.72125671 -55.06884949 153.20674988 -55.7766571 153.70695496 C-59.7158396 156.48782104 -63.66258015 159.25748666 -67.616745 162.01701355 C-68.50321716 162.63592468 -69.38968933 163.25483582 -70.30302429 163.89250183 C-72.01194295 165.08484412 -73.7216866 166.27600523 -75.43241882 167.46574402 C-80.49465813 170.99768311 -85.46590141 174.62888808 -90.38237 178.36076355 C-84.35123328 183.19178965 -78.16604577 187.61827605 -71.6870575 191.8256073 C-70.78501083 192.41632019 -69.88296417 193.00703308 -68.95358276 193.61564636 C-67.04076903 194.86825653 -65.12696596 196.11935705 -63.2122345 197.36903381 C-36.76220514 214.63824637 -36.76220514 214.63824637 -24.44487 223.29826355 C-23.72741283 223.79114156 -23.00995567 224.28401957 -22.27075738 224.79183328 C-18.01462903 227.73507056 -13.89303862 230.72170215 -9.93216419 234.0538578 C4.57921952 245.71593479 18.49660924 246.36245873 36.36239374 246.07022524 C40.31106452 246.02140389 44.25923373 246.05491981 48.20802307 246.07766724 C55.0247403 246.10602518 61.83973328 246.08397744 68.65624428 246.02618027 C78.51102729 245.9426968 88.36467271 245.9375803 98.21974453 245.95065565 C114.21428956 245.96979044 130.20802775 245.92688654 146.2023468 245.84416199 C161.72518499 245.76401067 177.24765836 245.71357863 192.77070618 245.70256042 C194.20962974 245.70152372 194.20962974 245.70152372 195.67762247 245.70046608 C200.49079396 245.69717985 205.30396556 245.69447204 210.11713755 245.69205165 C249.95105629 245.67127413 289.7841732 245.54947509 329.61763 245.36076355 C328.11787726 249.22865641 326.36516547 252.62261319 324.195755 256.16545105 C323.85939529 256.71720505 323.52303558 257.26895905 323.17648315 257.83743286 C322.07706628 259.63906331 320.97236687 261.43739131 319.86763 263.23576355 C319.09601626 264.49814926 318.32478053 265.76076609 317.5539093 267.02360535 C315.98959676 269.58520766 314.42335354 272.14561254 312.85542297 274.70500183 C310.27184172 278.9234227 307.7006906 283.14936354 305.1308136 287.37614441 C303.42338023 290.18436492 301.71408044 292.99144183 300.00434875 295.79826355 C297.73398505 299.52613662 295.46591463 303.25539037 293.19966125 306.98576355 C288.22327354 315.17422171 283.24050355 323.35841346 278.21528625 331.51701355 C277.84687622 332.11515366 277.47846619 332.71329376 277.09889221 333.32955933 C275.29503542 336.25736338 273.48970497 339.18424851 271.68257141 342.11003113 C271.03594543 343.15828064 270.38931946 344.20653015 269.72309875 345.2865448 C269.14712952 346.21893982 268.57116028 347.15133484 267.97773743 348.11198425 C266.62064658 350.28787838 266.62064658 350.28787838 265.61763 352.36076355 C230.13516092 352.54444057 194.65277612 352.68512647 159.16992835 352.76928619 C154.9674362 352.77929015 150.76494498 352.78964489 146.56245422 352.80021667 C145.72592093 352.80231516 144.88938763 352.80441364 144.02750485 352.80657572 C130.53634911 352.84125267 117.04547003 352.90425414 103.55447765 352.97798592 C89.68007712 353.05317272 75.80582007 353.09731225 61.93122423 353.11347151 C53.39065625 353.1243717 44.85087057 353.15861504 36.31054382 353.22409528 C30.42987332 353.26684776 24.54959878 353.27906144 18.66878469 353.26877457 C15.29063689 353.26372043 11.9149163 353.27524035 8.53683853 353.31440735 C-38.40540736 353.83135901 -82.6322587 329.83558644 -116.38237 298.36076355 C-117.50965515 297.31468933 -117.50965515 297.31468933 -118.65971375 296.2474823 C-146.46735067 269.51500884 -161.20971381 230.49758193 -162.38237 192.36076355 C-162.42233093 191.3552948 -162.46229187 190.34982605 -162.50346375 189.31388855 C-163.5383856 138.42008452 -146.65978045 91.53951427 -112.2964325 54.08732605 C-107.06772635 48.68788664 -101.30174499 43.97966979 -95.38237 39.36076355 C-94.55672546 38.71252625 -94.55672546 38.71252625 -93.71440125 38.05119324 C-74.25840895 22.89082171 -51.40847383 11.03481508 -27.7302416 4.06208259 C-26.16565349 3.5947336 -24.60775146 3.10438533 -23.05755585 2.59131163 C-15.30684284 0.19237074 -8.07196668 -0.05399162 0 0 Z " fill="#69EBE0" transform="translate(166.3823699951172,23.639236450195313)"/>
<path d="M0 0 C54.12 0 108.24 0 164 0 C162.60492908 4.18521275 161.62635157 6.95336309 159.453125 10.5546875 C158.94547607 11.40369629 158.43782715 12.25270508 157.91479492 13.12744141 C157.09072144 14.48748291 157.09072144 14.48748291 156.25 15.875 C155.0631535 17.85898715 153.87697801 19.84337584 152.69140625 21.828125 C152.0792627 22.84970703 151.46711914 23.87128906 150.83642578 24.92382812 C147.92193487 29.80585225 145.05142802 34.71318747 142.1875 39.625 C141.61080566 40.61387207 141.03411133 41.60274414 140.43994141 42.62158203 C133.57367737 54.41950018 126.81778918 66.28057588 120.05957031 78.14056396 C117.10577842 83.32416246 114.1509313 88.50715616 111.19378662 93.68884277 C110.14538945 95.52675587 109.0982979 97.36540844 108.05126953 99.20410156 C107.41817871 100.31366211 106.78508789 101.42322266 106.1328125 102.56640625 C105.57480957 103.54552979 105.01680664 104.52465332 104.44189453 105.53344727 C103.35518814 107.39240336 102.19442919 109.20835622 101 111 C98.45019341 111.36412811 98.45019341 111.36412811 95.15011597 111.34851074 C93.89738262 111.34987534 92.64464928 111.35123993 91.35395432 111.35264587 C89.95194992 111.33888484 88.54994827 111.32484172 87.14794922 111.31054688 C85.6700025 111.30638105 84.19205157 111.30353198 82.71409988 111.30189514 C78.64595098 111.29352764 74.57811023 111.26630601 70.51007318 111.23604774 C66.14688224 111.20679888 61.78364087 111.19471267 57.42037964 111.18054199 C48.9083751 111.15015411 40.39652979 111.10370385 31.88463151 111.05191183 C22.0253945 110.99256809 12.16610665 110.94970095 2.30678415 110.907444 C-19.98506623 110.81102813 -42.27672114 110.68625245 -64.56838727 110.55462074 C-75.12846246 110.49233722 -85.68855239 110.43273022 -96.24864364 110.37324238 C-117.83244542 110.25160035 -139.41622868 110.1269268 -161 110 C-158.56770415 107.53250143 -156.26643396 105.34598814 -153.37280273 103.43579102 C-152.66941269 102.9680275 -151.96602264 102.50026398 -151.24131775 102.01832581 C-150.09899437 101.26868813 -150.09899437 101.26868813 -148.93359375 100.50390625 C-147.71845848 99.69801308 -147.71845848 99.69801308 -146.47877502 98.87583923 C-144.72178061 97.71114379 -142.96342074 96.54850615 -141.20385742 95.38769531 C-136.46163301 92.25885676 -131.72952161 89.11477972 -126.99609375 85.97265625 C-126.01337494 85.32088409 -125.03065613 84.66911194 -124.01815796 83.99758911 C-112.41579057 76.29675254 -100.87803362 68.5005714 -89.34078979 60.70266724 C-80.61855833 54.80758881 -71.89362449 48.91772755 -63.12890625 43.0859375 C-52.69964814 36.14658604 -42.31921736 29.13519167 -31.9375 22.125 C-29.08400103 20.19860355 -26.23039868 18.27236067 -23.37660217 16.34640503 C-21.62221472 15.16237504 -19.86799983 13.97808932 -18.11399841 12.79348755 C-16.52450247 11.72059899 -14.93396257 10.64925504 -13.34225464 9.57965088 C-11.7130859 8.48091559 -10.08920266 7.37431905 -8.46951294 6.26165771 C-7.66174408 5.71108704 -6.85397522 5.16051636 -6.02172852 4.59326172 C-5.29671646 4.09510956 -4.57170441 3.5969574 -3.82472229 3.08370972 C-2 2 -2 2 0 2 C0 1.34 0 0.68 0 0 Z " fill="#26CCC2" transform="translate(332,24)"/>
<path d="M0 0 C105.6 0 211.2 0 320 0 C314.96673512 8.80821354 309.91058835 17.51748247 304.5625 26.125 C303.15553628 28.40060512 301.74914771 30.67655357 300.34375 32.953125 C299.98591934 33.53242767 299.62808868 34.11173035 299.25941467 34.70858765 C295.32839193 41.07793324 291.4426869 47.47459917 287.5625 53.875 C287.21457397 54.44879395 286.86664795 55.02258789 286.50817871 55.61376953 C285.0928107 57.94812057 283.67763698 60.28258911 282.26287842 62.61730957 C279.63118388 66.96012181 276.99605903 71.30084048 274.359375 75.640625 C273.97680038 76.27038239 273.59422577 76.90013977 273.20005798 77.54898071 C270.22533041 82.44567017 270.22533041 82.44567017 268.74490356 84.8817749 C267.73202201 86.54863102 266.71952184 88.21571887 265.70703125 89.8828125 C264.84815308 91.29651123 264.84815308 91.29651123 263.97192383 92.73876953 C261.95607077 95.77351503 261.95607077 95.77351503 261.21697998 98.55227661 C259.89836995 101.96412579 258.84907122 103.66163127 256 106 C248.90408545 108.11490043 241.0519844 107.55524037 233.7265625 107.5390625 C231.48332672 107.56106841 229.24011036 107.5851406 226.99691772 107.61117554 C222.28382033 107.65301933 217.5725872 107.65555098 212.859375 107.63330078 C208.06601522 107.61470902 203.27963096 107.6555535 198.48730469 107.75634766 C149.7931203 108.772293 149.7931203 108.772293 133.08349609 93.93115234 C132.38512634 93.25340759 131.68675659 92.57566284 130.96722412 91.87738037 C128.18845784 89.22552122 125.17116869 87.16114775 122 85 C120.948125 84.236875 119.89625 83.47375 118.8125 82.6875 C113.63466345 78.98904532 108.30363446 75.5141441 103 72 C95.49955704 67.03026885 88.1059207 61.97969645 80.82421875 56.6953125 C74.60043968 52.24950774 68.17416483 48.08862048 61.78710938 43.8828125 C56.00262426 40.05962339 50.35886263 36.09958513 44.77075195 31.99560547 C40.00480941 28.56298459 35.09195712 25.35499649 30.1875 22.125 C6.25841346 6.25841346 6.25841346 6.25841346 0 0 Z " fill="#26CCC2" transform="translate(176,270)"/>
</svg>
