<?xml version="1.0" encoding="UTF-8"?>
<svg version="1.1" xmlns="http://www.w3.org/2000/svg" width="500" height="150">
<path d="M0 0 C1.1331665 -0.00058411 2.26633301 -0.00116821 3.43383789 -0.00177002 C7.1349276 0.00099016 10.83518588 0.03198494 14.53613281 0.06347656 C17.11972616 0.07094628 19.70332521 0.07663575 22.28692627 0.08062744 C28.36406104 0.09427731 34.44085878 0.12571905 40.51786733 0.1660254 C47.44421169 0.21095399 54.37057107 0.23278276 61.2970252 0.25280714 C75.52792564 0.29445913 89.75858129 0.36467841 103.98925781 0.45410156 C102.42129799 4.49001442 100.55910799 8.13325076 98.39941406 11.89160156 C97.88162636 12.79543579 97.88162636 12.79543579 97.3533783 13.7175293 C96.2558668 15.63147754 95.15383227 17.54277787 94.05175781 19.45410156 C93.31514288 20.73779119 92.57881201 22.02164387 91.84277344 23.30566406 C89.89876294 26.69266471 87.95157349 30.07765727 85.98925781 33.45410156 C85.62755997 34.33251205 85.26586212 35.21092255 84.89320374 36.11595154 C82.98925781 38.45410156 82.98925781 38.45410156 79.36410522 39.0125885 C77.82529882 39.00824841 76.28642869 38.97626965 74.74853516 38.9230957 C73.48673683 38.90990799 73.48673683 38.90990799 72.19944763 38.89645386 C70.36922652 38.87517161 68.53910788 38.84294545 66.70923996 38.80116463 C63.79708336 38.73865438 60.88679852 38.71323167 57.97402954 38.69883728 C49.69228732 38.65355241 41.41209362 38.56085962 33.13183594 38.39624023 C28.06393795 38.29813074 22.99835781 38.2602984 17.92955399 38.25808525 C16.01189253 38.24570733 14.09422408 38.21130588 12.17741013 38.15297127 C-2.05543145 37.72827081 -10.25708596 40.72243842 -21.14416122 49.9240551 C-24.14765382 52.38603415 -27.35547148 54.53494054 -30.57324219 56.70410156 C-31.62640625 57.43113281 -32.67957031 58.15816406 -33.76464844 58.90722656 C-34.50585938 59.41769531 -35.24707031 59.92816406 -36.01074219 60.45410156 C-34.67862554 61.78865047 -33.34500343 63.12169679 -32.01074219 64.45410156 C-31.33722214 65.14071869 -30.66370209 65.82733582 -29.96977234 66.53475952 C-9.80058349 85.90600102 13.220459 84.82230316 39.83981133 84.32138443 C42.35038353 84.26649163 44.86093338 84.21056669 47.37145996 84.15362549 C53.76769414 84.02836 60.1642594 84.00782221 66.56152344 83.97753906 C79.03985271 83.9034996 91.51355994 83.71633252 103.98925781 83.45410156 C97.75820813 94.98104674 97.75820813 94.98104674 94.41113281 100.45410156 C93.80785156 101.4428125 93.20457031 102.43152344 92.58300781 103.45019531 C91.97457031 104.44148438 91.36613281 105.43277344 90.73925781 106.45410156 C90.11535156 107.47632812 89.49144531 108.49855469 88.84863281 109.55175781 C84.33176773 116.94033668 84.33176773 116.94033668 81.98925781 120.45410156 C79.03771027 120.76156225 76.29468057 120.87377966 73.33959961 120.8581543 C72.44335373 120.86501755 71.54710785 120.8718808 70.623703 120.87895203 C67.64513508 120.89732647 64.66708932 120.89336318 61.68847656 120.88769531 C59.61497323 120.89225617 57.54147142 120.89756145 55.4679718 120.90357971 C51.10903818 120.91253476 46.75028746 120.91006538 42.39135742 120.90014648 C36.83452132 120.88872826 31.27832744 120.9087457 25.72157574 120.93806362 C21.43097479 120.95652563 17.14052433 120.95611206 12.84989357 120.9504261 C10.80359823 120.95027371 8.75729214 120.9562498 6.71103477 120.96871758 C-4.55943885 121.02764385 -14.45546542 120.83739093 -25.01074219 116.45410156 C-25.67665878 116.17914856 -26.34257538 115.90419556 -27.02867126 115.62091064 C-43.04353428 108.38242196 -53.56184223 97.34557861 -60.06542969 81.21582031 C-65.11976256 66.44964947 -62.72317686 48.4975275 -56.72558594 34.44238281 C-48.75585289 18.52511653 -34.87144901 8.25525499 -18.43719482 2.33795166 C-12.17354288 0.29173316 -6.54916682 -0.09042767 0 0 Z " fill="#69EBE0" transform="translate(395.0107421875,14.5458984375)"/>
<path d="M0 0 C5.8954407 -0.05703306 11.7894906 -0.03676405 17.68505859 -0.01171875 C19.75016168 -0.00669377 21.81526594 -0.00213263 23.88037109 0.00195312 C28.89862989 0.01287982 33.91683095 0.0300895 38.93505859 0.05078125 C37.43458886 4.10870884 35.49944429 7.73943986 33.34521484 11.48828125 C32.82742714 12.39211548 32.82742714 12.39211548 32.29917908 13.31420898 C31.20166758 15.22815723 30.09963305 17.13945755 28.99755859 19.05078125 C28.26094366 20.33447088 27.52461279 21.61832356 26.78857422 22.90234375 C24.84456372 26.2893444 22.89737428 29.67433696 20.93505859 33.05078125 C20.400858 34.36534554 20.400858 34.36534554 19.85586548 35.70646667 C17.93505859 38.05078125 17.93505859 38.05078125 14.19551086 38.65205383 C12.6052208 38.66657018 11.01453617 38.65320363 9.42456055 38.6184082 C8.12180176 38.6195034 8.12180176 38.6195034 6.79272461 38.62062073 C3.91896332 38.61713429 1.04681831 38.57822387 -1.82666016 38.5390625 C-3.81776545 38.52973812 -5.8088822 38.52262024 -7.80000305 38.5176239 C-13.04297507 38.49852463 -18.28525551 38.44939832 -23.5279541 38.394104 C-28.87677657 38.34297481 -34.22571068 38.32012338 -39.57470703 38.29492188 C-50.07175583 38.24128265 -60.56829113 38.15593421 -71.06494141 38.05078125 C-68.00947301 35.59174798 -64.95522522 33.21987014 -61.71337891 31.01171875 C-60.45630127 30.15344482 -60.45630127 30.15344482 -59.17382812 29.27783203 C-56.29636282 27.32851503 -53.41499562 25.38504365 -50.53369141 23.44140625 C-46.59808557 20.786087 -42.6934785 18.09604796 -38.81723022 15.35494995 C-36.44934776 13.68572712 -34.06771014 12.03681098 -31.68389893 10.39044189 C-30.53487039 9.59014732 -29.39171286 8.78134665 -28.25506592 7.96356201 C-18.3863536 0.87577666 -11.78906094 0.14159736 0 0 Z " fill="#27CCC2" transform="translate(460.06494140625,14.94921875)"/>
<path d="M0 0 C35.97 0 71.94 0 109 0 C102.24737631 12.37981009 102.24737631 12.37981009 99.421875 17 C98.81859375 17.98871094 98.2153125 18.97742188 97.59375 19.99609375 C96.9853125 20.98738281 96.376875 21.97867188 95.75 23 C95.12609375 24.02222656 94.5021875 25.04445313 93.859375 26.09765625 C89.34250992 33.48623512 89.34250992 33.48623512 87 37 C84.44440931 37.38017052 82.13727692 37.56376858 79.5703125 37.609375 C78.82474091 37.62647522 78.07916931 37.64357544 77.31100464 37.66119385 C75.72569552 37.68957413 74.1402086 37.70915807 72.5546875 37.72070312 C70.16594199 37.74950633 67.78532349 37.84230222 65.3984375 37.9375 C53.95255389 38.17386667 48.57776326 35.82399242 40 28 C38.16832828 26.71726357 36.31649602 25.46235638 34.4375 24.25 C28.21471856 20.16168185 22.07406456 15.95926329 15.93725586 11.74316406 C15.17034424 11.2169043 14.40343262 10.69064453 13.61328125 10.1484375 C12.85998535 9.63120117 12.10668945 9.11396484 11.33056641 8.58105469 C8.12774811 6.4082649 4.88747503 4.29348781 1.64135742 2.18603516 C1.09970947 1.79464355 0.55806152 1.40325195 0 1 C0 0.67 0 0.34 0 0 Z " fill="#27CCC2" transform="translate(390,98)"/>
<path d="M0 0 C5.45281979 4.41182692 8.10535161 8.5725013 9.171875 15.46875 C10.0532755 23.82246806 9.93733253 31.27403352 5.9609375 38.80078125 C0.03020896 45.884707 -5.611148 48.97267883 -14.81640625 49.80859375 C-24.28612913 50.09701171 -33.44882939 49.30680281 -40.7890625 42.73828125 C-45.75585058 36.82437438 -46.85152506 30.08556541 -46.7890625 22.61328125 C-46.78406738 21.82606689 -46.77907227 21.03885254 -46.77392578 20.2277832 C-46.52857022 12.02021653 -44.14040956 6.60486989 -38.6015625 0.55078125 C-27.44998278 -6.39265518 -11.22511188 -7.41317116 0 0 Z M-28.1015625 11.67578125 C-31.50936919 16.87717041 -31.68161333 22.17686288 -30.88671875 28.1796875 C-29.94023936 31.83569614 -28.3831315 33.4031478 -25.2890625 35.48828125 C-19.73702039 37.05961392 -15.615034 36.35237127 -10.2890625 34.48828125 C-6.64339469 30.96021563 -6.36130544 27.58998601 -6.0390625 22.67578125 C-6.09632733 18.29911229 -7.212536 15.3337007 -9.2890625 11.48828125 C-15.28191055 7.49304921 -22.04507695 7.70773899 -28.1015625 11.67578125 Z " fill="#4EDED4" transform="translate(144.2890625,63.51171875)"/>
<path d="M0 0 C1.16764893 0.00193359 1.16764893 0.00193359 2.35888672 0.00390625 C9.00400612 0.11353907 14.88337754 1.35353924 21.25 3.3125 C21.25 7.9325 21.25 12.5525 21.25 17.3125 C19.88875 17.003125 18.5275 16.69375 17.125 16.375 C7.15901808 14.4269752 -3.32403954 12.57174189 -12.75 17.3125 C-17.57790741 21.52144492 -19.32157392 27.7766944 -20.07421875 33.98828125 C-20.34814375 40.66638389 -19.37884762 46.60708802 -15.75 52.3125 C-11.25396398 56.9143251 -5.95489458 58.07220988 0.30859375 58.39453125 C5.39498742 58.25267963 10.27470765 57.31719251 15.25 56.3125 C18.22 55.8175 18.22 55.8175 21.25 55.3125 C21.25 59.9325 21.25 64.5525 21.25 69.3125 C7.28585874 73.67629414 -8.14638237 74.30180882 -21.5 67.625 C-29.68869793 61.79842647 -34.26433804 54.55510204 -36.28125 44.72265625 C-37.74145002 33.42269926 -36.05319854 21.91388383 -29.75 12.3125 C-21.99987101 2.88666745 -11.80726631 -0.08187054 0 0 Z " fill="#64E9DF" transform="translate(37.75,40.6875)"/>
<path d="M0 0 C4.91727647 4.91727647 5.47583532 9.58980818 5.67602539 16.45654297 C5.67586906 17.90593412 5.67033919 19.35533211 5.66015625 20.8046875 C5.6587413 21.57305939 5.65732635 22.34143127 5.65586853 23.13308716 C5.65030683 25.56793239 5.6377616 28.00268294 5.625 30.4375 C5.61998004 32.09635283 5.61541801 33.75520712 5.61132812 35.4140625 C5.60034998 39.4635777 5.58311206 43.51302284 5.5625 47.5625 C0.9425 47.5625 -3.6775 47.5625 -8.4375 47.5625 C-8.7675 46.5725 -9.0975 45.5825 -9.4375 44.5625 C-10.324375 45.036875 -11.21125 45.51125 -12.125 46 C-18.95296261 49.22073708 -27.56543488 50.01073907 -34.85546875 47.84375 C-39.79798451 45.54404285 -42.97292299 42.49165402 -45.4375 37.5625 C-45.99519904 31.59941027 -45.93906448 26.63373132 -42.4375 21.5625 C-36.66087574 15.94200072 -30.82647695 15.33548277 -23.08984375 15.38671875 C-21.59130859 15.41185547 -21.59130859 15.41185547 -20.0625 15.4375 C-18.52916016 15.45103516 -18.52916016 15.45103516 -16.96484375 15.46484375 C-14.45548478 15.4882957 -11.94661664 15.52111645 -9.4375 15.5625 C-10.72182339 12.06544871 -10.72182339 12.06544871 -12.4375 8.5625 C-20.5392416 5.86191947 -31.08685423 7.39047954 -39.4375 8.5625 C-39.4375 4.9325 -39.4375 1.3025 -39.4375 -2.4375 C-26.94074435 -6.34273614 -11.02085405 -8.60423305 0 0 Z M-31.4375 28.5625 C-32.10416667 31.5625 -32.10416667 31.5625 -31.4375 34.5625 C-28.5686191 37.32753 -26.503561 37.97433235 -22.5625 37.9375 C-17.15129423 37.77787741 -13.32001069 36.44501069 -9.4375 32.5625 C-9.27072718 28.97906024 -9.27072718 28.97906024 -9.4375 25.5625 C-12.35472548 25.48146596 -15.26969516 25.42198919 -18.1875 25.375 C-19.425 25.33729492 -19.425 25.33729492 -20.6875 25.29882812 C-26.71475592 25.12801672 -26.71475592 25.12801672 -31.4375 28.5625 Z " fill="#34D3C9" transform="translate(254.4375,64.4375)"/>
<path d="M0 0 C0 4.29 0 8.58 0 13 C-1.98 12.67 -3.96 12.34 -6 12 C-7.43342807 11.92740753 -8.86946494 11.89130358 -10.3046875 11.90234375 C-11.05234375 11.90556641 -11.8 11.90878906 -12.5703125 11.91210938 C-13.71113281 11.92467773 -13.71113281 11.92467773 -14.875 11.9375 C-15.65875 11.94201172 -16.4425 11.94652344 -17.25 11.95117188 C-19.16670014 11.96285907 -21.08336048 11.98079092 -23 12 C-22.67 12.99 -22.34 13.98 -22 15 C-19.26864956 16.10970359 -16.6173842 17.05849639 -13.8125 17.9375 C0.56074291 22.48351289 0.56074291 22.48351289 4 29 C5.47964341 35.23564009 5.09551223 40.29300108 2 46 C-5.81139781 52.92373897 -15.10431222 52.53803846 -25 52 C-36.33917397 50.66082603 -36.33917397 50.66082603 -38 49 C-38.07258946 46.81360547 -38.08373783 44.62499611 -38.0625 42.4375 C-38.05347656 41.23996094 -38.04445312 40.04242188 -38.03515625 38.80859375 C-38.02355469 37.88175781 -38.01195312 36.95492187 -38 36 C-37.45214844 36.144375 -36.90429688 36.28875 -36.33984375 36.4375 C-28.4944582 38.27446832 -21.01429447 38.19234307 -13 38 C-12.67 36.68 -12.34 35.36 -12 34 C-12.60585937 33.82984375 -13.21171875 33.6596875 -13.8359375 33.484375 C-34.25241996 27.57930007 -34.25241996 27.57930007 -38.3125 20.8125 C-39.66717485 15.27064834 -39.91279071 10.76038209 -37.25 5.625 C-28.00482844 -5.16103348 -12.60440583 -3.01000736 0 0 Z " fill="#41D8CE" transform="translate(199,61)"/>
<path d="M0 0 C0 3.63 0 7.26 0 11 C-4.29 11 -8.58 11 -13 11 C-13.66 14.3 -14.32 17.6 -15 21 C-10.71 21 -6.42 21 -2 21 C-2 24.96 -2 28.92 -2 33 C-6.29 33 -10.58 33 -15 33 C-15 46.2 -15 59.4 -15 73 C-19.95 73 -24.9 73 -30 73 C-30 59.8 -30 46.6 -30 33 C-32.31 33 -34.62 33 -37 33 C-37 29.04 -37 25.08 -37 21 C-34.69 21 -32.38 21 -30 21 C-30.04640625 20.3709375 -30.0928125 19.741875 -30.140625 19.09375 C-30.40399391 12.84814448 -29.83954537 8.08416864 -26 3 C-18.39071141 -3.05637255 -8.9584628 -3.87392986 0 0 Z " fill="#2ACEC4" transform="translate(303,39)"/>
<path d="M0 0 C4.95 0 9.9 0 15 0 C15.02505615 1.77681152 15.0501123 3.55362305 15.07592773 5.38427734 C15.15974383 11.24768456 15.2480132 17.11101558 15.33933926 22.97430992 C15.39455915 26.53004209 15.44797763 30.08578251 15.49731445 33.64160156 C15.55408168 37.72730602 15.61862054 41.81285525 15.68359375 45.8984375 C15.70030624 47.17866791 15.71701874 48.45889832 15.73423767 49.77792358 C15.75418289 50.95899689 15.77412811 52.14007019 15.79467773 53.35693359 C15.81022202 54.40062103 15.8257663 55.44430847 15.84178162 56.5196228 C15.83847204 59.00141782 15.83847204 59.00141782 17 61 C19.31 61 21.62 61 24 61 C24 64.96 24 68.92 24 73 C18.07790854 74.48052287 11.90806838 74.98935452 6.0625 72.875 C2.34357623 70.59810789 1.6147308 69.00478434 0 65 C-0.36076355 61.81082153 -0.36076355 61.81082153 -0.34057617 58.35205078 C-0.34034958 57.05115509 -0.34012299 55.7502594 -0.33988953 54.40994263 C-0.32457301 53.00506235 -0.30892508 51.60018565 -0.29296875 50.1953125 C-0.2873677 48.74657634 -0.28310001 47.29783447 -0.28010559 45.84909058 C-0.26869677 42.05139245 -0.2392644 38.25404307 -0.20599365 34.45648193 C-0.17520678 30.5752026 -0.16158192 26.69386646 -0.14648438 22.8125 C-0.11439023 15.20815656 -0.06165545 7.60417174 0 0 Z " fill="#59E4DA" transform="translate(68,39)"/>
</svg>
